<svg width="14" height="13" viewBox="0 0 14 13" fill="none" xmlns="http://www.w3.org/2000/svg">
<path fill-rule="evenodd" clip-rule="evenodd" d="M2.26416 1C2.26416 0.723858 2.48802 0.5 2.76416 0.5H12.7642C13.0403 0.5 13.2642 0.723858 13.2642 1V9.98356C13.2642 11.497 12.1439 12.7473 10.6894 12.9537C10.6348 12.9741 10.5758 12.9853 10.5142 12.9853C10.4562 12.9853 10.3992 12.9844 10.3432 12.9825C10.3104 12.9834 10.2775 12.9837 10.2445 12.9835L9.88132 12.9811L6.26677 13L6.26416 13H3.26416C1.88345 13 0.76416 11.8807 0.76416 10.5V9.5C0.76416 9.22386 0.988018 9 1.26416 9H2.26416V1ZM3.26416 9H8.26416C8.5403 9 8.76416 9.22386 8.76416 9.5C8.76416 10.2884 8.77528 10.8997 8.99203 11.3303C9.08878 11.5226 9.22674 11.6744 9.442 11.7851C9.64058 11.8872 9.92722 11.9654 10.3448 11.982C11.4112 11.9398 12.2642 11.0618 12.2642 9.98356V1.5H3.26416V9ZM8.21952 11.9898C8.17525 11.9221 8.13509 11.852 8.09879 11.7799C7.83053 11.2469 7.7771 10.5969 7.76663 10H1.76416V10.5C1.76416 11.3284 2.43573 12 3.26416 12H6.26416L8.21952 11.9898Z" fill="#4F5162"/>
</svg>
