<svg width="273" height="106" viewBox="0 0 273 106" fill="none" xmlns="http://www.w3.org/2000/svg">
<path d="M214.777 53.5879C214.777 72.9179 197.607 88.5879 178.277 88.5879C158.947 88.5879 143.277 72.9179 143.277 53.5879C143.277 34.258 157.984 22.5879 177.313 22.5879C196.643 22.5879 214.777 34.2579 214.777 53.5879Z" fill="#A8EB7F"/>
<path d="M168.812 49.0882C164.736 49.9943 165.812 53.0881 163.312 55.0881L152.812 59.0882V64.5882L165.313 69.0882C160.313 80.0881 153.812 84.0881 160.312 85.5881C176.024 89.214 186.813 89.5881 191.313 85.5881C191.313 99.0881 188.082 108.24 191.313 104.588C202.812 91.5881 196.813 68.7548 191.313 56.5881C190.182 54.088 186.566 50.6348 182.312 49.0883C176.812 47.0884 173.312 48.0881 168.812 49.0882Z" fill="white"/>
<path fill-rule="evenodd" clip-rule="evenodd" d="M143.376 37.3451C148.482 28.154 161.171 21.5879 173.367 21.5879C187.402 21.5879 196.985 24.912 204.658 32.226C213.569 40.721 216.296 50.4804 214.708 59.4899C213.125 68.4791 207.257 76.664 199.089 82.0743C198.859 82.2268 198.549 82.1638 198.396 81.9336C198.244 81.7034 198.307 81.3931 198.537 81.2406C206.513 75.9573 212.195 67.9948 213.724 59.3164C215.249 50.6583 212.653 41.2296 203.968 32.9498C196.531 25.8609 187.224 22.5879 173.367 22.5879C161.454 22.5879 149.144 29.0217 144.25 37.8307C144.116 38.0721 143.811 38.1591 143.57 38.025C143.328 37.8909 143.241 37.5865 143.376 37.3451ZM146.981 75.2135C147.188 75.0306 147.504 75.0501 147.687 75.2571C154.737 83.2345 163.219 86.6274 173.414 87.5904C179.474 88.1629 185.336 87.2669 190.637 85.2751C190.896 85.178 191.184 85.3088 191.281 85.5673C191.378 85.8258 191.247 86.1141 190.989 86.2112C185.553 88.2537 179.538 89.1734 173.32 88.586C162.932 87.6047 154.192 84.1275 146.938 75.9193C146.755 75.7123 146.775 75.3964 146.981 75.2135Z" fill="black"/>
<path fill-rule="evenodd" clip-rule="evenodd" d="M172.156 47.0264C178.588 45.5452 186.851 47.7561 189.791 54.8394C190.489 56.521 190.445 58.4614 189.903 60.3803C189.36 62.3017 188.309 64.2357 186.938 65.9391C184.216 69.324 180.124 71.9229 176.075 71.5532C169.88 70.9878 165.831 66.763 164.732 61.9353C162.791 57.9765 162.961 54.6134 164.512 52.036C166.06 49.4624 168.925 47.7706 172.156 47.0264ZM165.681 61.5981C165.34 60.0227 165.341 58.3825 165.715 56.8041C165.779 56.5355 165.613 56.266 165.344 56.2023C165.075 56.1385 164.806 56.3047 164.742 56.5734C164.617 57.0998 164.53 57.6322 164.481 58.1666C164.06 55.9471 164.455 54.0708 165.369 52.5515C166.735 50.2796 169.323 48.7051 172.381 48.0009C178.527 46.5854 186.181 48.7495 188.867 55.2227C189.454 56.6363 189.442 58.3336 188.941 60.1084C188.44 61.8807 187.459 63.6965 186.159 65.3123C183.542 68.566 179.745 70.884 176.166 70.5574C170.474 70.0379 166.768 66.1989 165.729 61.8093C165.728 61.7383 165.713 61.6663 165.681 61.5981Z" fill="black"/>
<path fill-rule="evenodd" clip-rule="evenodd" d="M161.778 55.4023C161.88 55.6587 161.756 55.9497 161.499 56.0523C157.747 57.5533 155.599 58.3127 153.943 58.7583C152.504 59.1458 151.441 59.2945 150.052 59.4887C149.838 59.5187 149.616 59.5497 149.383 59.5829C149.11 59.6219 148.857 59.4319 148.818 59.1586C148.779 58.8852 148.969 58.632 149.242 58.5929C149.478 58.5592 149.702 58.5278 149.917 58.4977C151.306 58.3033 152.307 58.1631 153.683 57.7927C155.278 57.3633 157.38 56.6227 161.128 55.1238C161.384 55.0212 161.675 55.1459 161.778 55.4023Z" fill="black"/>
<path fill-rule="evenodd" clip-rule="evenodd" d="M152.313 64.924C150.784 64.6787 149.47 64.6848 148.49 65.056C148.232 65.1538 147.943 65.0237 147.845 64.7655C147.747 64.5073 147.877 64.2186 148.136 64.1208C149.361 63.6564 150.886 63.6822 152.471 63.9366C154.068 64.1927 155.793 64.6923 157.455 65.2366C158.288 65.5093 159.109 65.7947 159.894 66.0683C159.939 66.084 159.984 66.0997 160.029 66.1154C160.766 66.3724 161.467 66.617 162.12 66.8316C163.529 67.295 164.628 67.5885 165.313 67.5885C165.481 67.5885 165.637 67.6724 165.73 67.8119C165.822 67.9515 165.839 68.1282 165.774 68.2825C163.765 73.0548 162.504 75.3246 161.244 77.4671C161.103 77.7073 160.961 77.9456 160.819 78.1855C159.704 80.0695 158.529 82.0524 156.765 85.8015C156.647 86.0514 156.35 86.1586 156.1 86.0411C155.85 85.9235 155.743 85.6256 155.86 85.3757C157.645 81.5832 158.839 79.5668 159.959 77.6764C160.101 77.4367 160.241 77.1991 160.382 76.9601C161.565 74.9485 162.749 72.8252 164.585 68.5252C163.801 68.4041 162.84 68.1211 161.807 67.7816C161.146 67.5641 160.436 67.3166 159.702 67.0605C159.656 67.0446 159.61 67.0286 159.564 67.0125C158.779 66.7388 157.966 66.4563 157.144 66.1869C155.496 65.6473 153.831 65.1674 152.313 64.924Z" fill="black"/>
<path fill-rule="evenodd" clip-rule="evenodd" d="M184.56 48.7164C184.765 48.5316 185.081 48.5481 185.266 48.7532C204.346 69.9323 200.363 94.7148 191.193 105.413C191.098 105.524 190.959 105.588 190.813 105.588C190.548 105.588 190.286 105.526 190.062 105.362C189.839 105.199 189.702 104.972 189.619 104.73C189.463 104.275 189.463 103.658 189.518 102.955C189.574 102.235 189.697 101.336 189.843 100.276L189.845 100.263C189.991 99.1985 190.161 97.9586 190.316 96.5339C190.937 90.8242 191.311 82.1282 188.823 70.1899C188.767 69.9196 188.94 69.6547 189.211 69.5984C189.481 69.5421 189.746 69.7156 189.802 69.9859C192.315 82.0476 191.939 90.8516 191.31 96.6419C191.154 98.0807 190.982 99.3322 190.836 100.395L190.834 100.41C190.687 101.482 190.568 102.348 190.515 103.033C190.46 103.737 190.483 104.166 190.565 104.406C190.588 104.473 190.611 104.511 190.628 104.532C199.321 94.1033 203.142 70.0896 184.523 49.4226C184.338 49.2174 184.355 48.9012 184.56 48.7164Z" fill="black"/>
<path fill-rule="evenodd" clip-rule="evenodd" d="M184.505 60.6267C184.76 60.7331 184.88 61.0259 184.774 61.2807C183.512 64.3017 180.533 66.3062 177.437 67.0733C174.352 67.8375 170.982 67.4106 168.955 65.338C168.762 65.1406 168.765 64.824 168.963 64.6309C169.16 64.4378 169.477 64.4413 169.67 64.6387C171.355 66.3617 174.301 66.8199 177.196 66.1026C180.08 65.3882 182.744 63.5447 183.851 60.8953C183.958 60.6405 184.25 60.5202 184.505 60.6267Z" fill="black"/>
<path d="M150.812 59.0879C150.812 77.3133 136.038 92.0879 117.812 92.0879C99.5871 92.0879 84.8125 77.3133 84.8125 59.0879C84.8125 40.8625 99.5871 26.0879 117.812 26.0879C136.038 26.0879 150.812 40.8625 150.812 59.0879Z" fill="#FFC100"/>
<path d="M115.312 45.587C115.312 45.587 102.312 55.587 94.3118 68.087C90.4785 67.2536 87.312 77.0869 94.3118 82.5869C103.821 90.0583 121.812 88.2536 132.812 87.0869L131.312 65.587L147.812 52.087L158.312 35.5869L131.312 58.0869C131.312 57.087 130.812 54.0869 133.312 53.0869C145.603 48.17 149.312 26.5869 125.812 30.087C111.956 32.1507 115.312 45.587 115.312 45.587Z" fill="url(#paint0_linear_373_27688)"/>
<path fill-rule="evenodd" clip-rule="evenodd" d="M114.785 26.5886C114.794 26.5881 114.803 26.5879 114.813 26.5879C118.739 26.5879 122.721 27.3015 126.548 28.615C126.809 28.7046 126.948 28.989 126.859 29.2502C126.769 29.5114 126.485 29.6505 126.223 29.5608C122.495 28.2815 118.628 27.5896 114.826 27.5879C107.083 28.0157 101.659 29.2574 97.3138 31.3599C92.9704 33.4617 89.6664 36.4427 86.1888 40.4171C86.007 40.625 85.6911 40.646 85.4833 40.4642C85.2754 40.2823 85.2544 39.9665 85.4362 39.7586C88.9586 35.7331 92.366 32.6433 96.8782 30.4597C101.387 28.2781 106.958 27.0199 114.785 26.5886ZM142.965 39.7287C143.163 39.5366 143.48 39.5417 143.672 39.7401C145.013 41.1252 146.197 42.5606 147.225 44.0567C147.381 44.2843 147.323 44.5956 147.096 44.7519C146.868 44.9083 146.557 44.8505 146.4 44.6229C145.407 43.1764 144.259 41.784 142.953 40.4357C142.761 40.2373 142.766 39.9208 142.965 39.7287ZM149.63 49.5122C149.888 49.4116 150.178 49.5386 150.278 49.7958C151.677 53.3733 152.345 57.2734 152.312 61.5917C152.254 69.2442 149.575 75.2414 145.281 79.718C140.996 84.1861 135.127 87.1154 128.714 88.6938C115.906 91.8458 100.779 89.6449 91.3907 83.3373C91.1615 83.1833 91.1006 82.8727 91.2546 82.6435C91.4086 82.4142 91.7192 82.3533 91.9484 82.5073C101.065 88.6326 115.894 90.819 128.475 87.7228C134.755 86.177 140.438 83.3233 144.56 79.0259C148.673 74.737 151.256 68.9861 151.313 61.5841C151.345 57.3761 150.694 53.6043 149.347 50.16C149.246 49.9028 149.373 49.6128 149.63 49.5122Z" fill="black"/>
<path fill-rule="evenodd" clip-rule="evenodd" d="M117.269 45.3849C117.382 45.6373 117.268 45.9328 117.016 46.0449C113.523 47.5972 110.454 49.073 107.075 52.0085C103.689 54.9501 99.9713 59.3771 95.235 66.8555C95.0872 67.0888 94.7783 67.1582 94.545 67.0104C94.3117 66.8627 94.2424 66.5538 94.3902 66.3205C99.1538 58.7989 102.932 54.2834 106.419 51.2537C109.913 48.2179 113.094 46.6937 116.609 45.1311C116.862 45.019 117.157 45.1326 117.269 45.3849Z" fill="black"/>
<path fill-rule="evenodd" clip-rule="evenodd" d="M130.812 53.5879C131.089 53.5879 131.312 53.8117 131.312 54.0879C131.313 64.0936 131.691 80.0962 132.807 87.5136C132.848 87.7867 132.66 88.0414 132.387 88.0824C132.114 88.1235 131.859 87.9355 131.818 87.6624C130.689 80.159 130.313 64.0821 130.313 54.0879C130.312 53.8118 130.536 53.5879 130.812 53.5879Z" fill="black"/>
<path fill-rule="evenodd" clip-rule="evenodd" d="M130.784 28.6417C135.991 29.0186 140.986 31.4155 142.657 36.528C145.389 44.8919 139.243 53.4348 130.803 54.4334C126.466 54.9465 122.695 54.1743 119.765 52.2055C116.84 50.2406 114.805 47.1184 113.867 43.0245C113.445 41.9458 113.24 40.8006 113.335 39.5962C113.501 37.498 114.572 35.3019 116.827 33.0342C119.962 29.8812 125.582 28.265 130.784 28.6417ZM114.815 42.7013C114.813 42.6952 114.81 42.689 114.808 42.683C114.427 41.7179 114.25 40.7146 114.332 39.675C114.474 37.8783 115.395 35.892 117.536 33.7394C120.408 30.8513 125.707 29.2767 130.712 29.6391C135.714 30.0012 140.215 32.273 141.706 36.8385C144.224 44.546 138.559 52.5088 130.685 53.4403C126.531 53.9318 123.013 53.1831 120.323 51.3754C118.614 50.2273 117.218 48.638 116.2 46.6287C118.698 49.3791 122.358 51.5603 125.235 53.0535C125.48 53.1807 125.782 53.0851 125.909 52.84C126.036 52.5949 125.94 52.2931 125.695 52.1659C122.381 50.4455 118.21 47.8954 115.945 44.7308C115.475 44.0748 115.092 43.398 114.815 42.7013Z" fill="black"/>
<path fill-rule="evenodd" clip-rule="evenodd" d="M150.56 42.383C145.385 47.4459 138.366 53.744 132.043 57.0316C131.798 57.159 131.496 57.0637 131.369 56.8187C131.242 56.5737 131.337 56.2718 131.582 56.1444C137.76 52.932 144.687 46.7302 149.861 41.6682C152.059 39.5176 153.931 37.5825 155.287 36.1806C155.524 35.9362 155.744 35.708 155.948 35.4977C156.628 34.7975 157.14 34.2776 157.423 34.0295C157.491 33.9691 157.568 33.9059 157.64 33.8606C157.668 33.8429 157.742 33.7971 157.839 33.775C157.889 33.7637 157.994 33.7469 158.118 33.7871C158.265 33.8351 158.375 33.944 158.431 34.0745C158.477 34.1831 158.474 34.2797 158.47 34.326C158.465 34.378 158.454 34.4209 158.446 34.4485C158.429 34.5036 158.407 34.5534 158.389 34.5902C158.357 34.654 158.315 34.7274 158.265 34.8069C152.704 50.4312 141.603 58.9954 132.095 65.5008C131.867 65.6567 131.556 65.5984 131.4 65.3704C131.244 65.1425 131.302 64.8314 131.53 64.6755C140.644 58.4398 151.054 50.4149 156.683 36.1764C156.678 36.1823 156.672 36.1882 156.666 36.1941C156.463 36.4033 156.243 36.6307 156.007 36.8745C154.651 38.2762 152.769 40.222 150.56 42.383Z" fill="black"/>
<path fill-rule="evenodd" clip-rule="evenodd" d="M116.448 45.1065C116.714 45.181 116.869 45.4569 116.794 45.7228C113.313 58.1571 112.314 71.0983 113.311 85.5536C113.324 85.7412 113.231 85.9201 113.07 86.0168C111.358 87.0439 109.09 87.6061 106.931 87.8474C104.767 88.0892 102.651 88.0157 101.214 87.7283C100.519 87.5892 99.892 87.3835 99.5219 87.0722C99.3268 86.9081 99.1375 86.6572 99.1427 86.3216C99.1477 85.9955 99.335 85.7389 99.5406 85.5539C99.9432 85.1915 100.68 84.8634 101.733 84.5509C102.709 84.2609 104.016 83.968 105.708 83.6813C104.565 78.4002 104.723 71.4223 105.756 64.8442C106.823 58.054 108.838 51.5932 111.399 47.8078C111.554 47.5791 111.864 47.5192 112.093 47.6739C112.322 47.8287 112.382 48.1395 112.227 48.3682C109.788 51.9729 107.803 58.262 106.744 64.9994C105.687 71.7294 105.57 78.81 106.799 83.9722C106.831 84.1074 106.806 84.25 106.728 84.3656C106.651 84.4812 106.529 84.5595 106.392 84.5816C104.466 84.8923 103.036 85.207 102.017 85.5095C100.976 85.8188 100.432 86.0971 100.21 86.2972C100.2 86.306 100.191 86.3141 100.184 86.3215C100.356 86.4545 100.755 86.6167 101.411 86.7477C102.724 87.0103 104.733 87.0869 106.819 86.8536C108.793 86.6331 110.782 86.1413 112.293 85.3103C111.325 70.8907 112.338 57.929 115.832 45.4532C115.906 45.1873 116.182 45.0321 116.448 45.1065ZM100.127 86.2687C100.127 86.2687 100.128 86.2695 100.129 86.271C100.128 86.2695 100.127 86.2687 100.127 86.2687ZM100.136 86.3792C100.135 86.3804 100.135 86.381 100.135 86.381C100.135 86.381 100.135 86.3804 100.136 86.3792Z" fill="black"/>
<path fill-rule="evenodd" clip-rule="evenodd" d="M135.083 43.609C135.063 43.5992 134.975 43.5695 134.761 43.6044C134.557 43.6376 134.355 43.6707 134.155 43.7034C131.643 44.1152 129.45 44.4748 126.955 44.4132C127.139 44.6394 127.309 44.8714 127.472 45.0973C127.529 45.1773 127.586 45.2566 127.642 45.335C128.212 46.1336 128.715 46.8387 129.44 47.2736C130.985 48.2009 132.778 48.2423 133.819 46.8757C134.034 46.5934 134.662 45.5375 134.967 44.614C135.042 44.3877 135.093 44.1827 135.115 44.0088C135.139 43.8298 135.128 43.7159 135.109 43.6537C135.096 43.6119 135.087 43.6098 135.084 43.6092C135.083 43.6091 135.083 43.609 135.083 43.609ZM125.482 44.3287C125.904 44.6696 126.269 45.1373 126.66 45.6809C126.718 45.7622 126.777 45.8454 126.837 45.93C127.384 46.7002 128.01 47.5821 128.925 48.1311C130.683 49.1855 133.128 49.4328 134.615 47.4818C134.892 47.1181 135.574 45.9645 135.917 44.9278C136.004 44.6641 136.074 44.3946 136.107 44.1379C136.14 43.8864 136.142 43.6136 136.065 43.3613C135.983 43.093 135.809 42.8486 135.516 42.7078C135.242 42.5759 134.925 42.5645 134.6 42.6174C134.404 42.6492 134.211 42.6808 134.021 42.7121C131.101 43.1902 128.728 43.5788 125.847 43.3558C125.584 43.1768 125.295 43.0265 124.971 42.9185C124.709 42.8311 124.426 42.9727 124.338 43.2347C124.3 43.3498 124.306 43.469 124.347 43.5739C124.332 43.612 124.321 43.6526 124.316 43.6951C124.283 43.9693 124.478 44.2184 124.752 44.2517C124.999 44.2816 125.242 44.3072 125.482 44.3287Z" fill="black"/>
<path d="M93.8125 63.0879C93.8125 81.8656 78.5902 97.0879 59.8125 97.0879C41.0348 97.0879 25.8125 81.8656 25.8125 63.0879C25.8125 44.3102 41.0348 29.0879 59.8125 29.0879C78.5902 29.0879 93.8125 44.3102 93.8125 63.0879Z" fill="white"/>
<path d="M89.8125 63.0879C89.8125 81.8656 74.5902 97.0879 55.8125 97.0879C37.0348 97.0879 21.8125 81.8656 21.8125 63.0879C21.8125 44.3102 37.0348 29.0879 55.8125 29.0879C74.5902 29.0879 89.8125 44.3102 89.8125 63.0879Z" fill="#AE82FC"/>
<path d="M49.3125 67.5874L35.3125 89.0874C46.1125 99.8874 66.1458 96.5874 74.8125 93.5874C70.1458 85.4207 61.5125 68.7874 64.3125 67.5874C67.8125 66.0874 74.5804 59.3565 71.3125 52.5874C64.3125 38.0873 51.3867 39.045 43.3125 48.5874C37.8125 55.0874 43.9792 63.754 49.3125 67.5874Z" fill="white"/>
<path fill-rule="evenodd" clip-rule="evenodd" d="M56.6307 41.5927C62.1163 41.7145 67.6229 44.1316 70.6325 48.8512C72.6153 51.9606 72.7258 56.9313 71.338 61.083C69.953 65.2266 66.9771 68.8102 62.5575 68.8203C57.1951 69.2131 53.0668 68.7664 49.9259 67.5996C50.1186 67.6899 50.3127 67.777 50.508 67.8607C50.7618 67.9695 50.8794 68.2634 50.7706 68.5172C50.6619 68.7711 50.3679 68.8886 50.1141 68.7799C46.3036 67.1468 42.8695 64.27 41.1412 60.6593C39.3991 57.0195 39.4148 52.6778 42.4435 48.2359C45.5755 43.6422 51.1454 41.4709 56.6307 41.5927ZM43.6629 62.781C42.0851 60.3837 41.341 57.414 41.0855 54.0847C40.753 56.2833 41.1486 58.3584 42.0432 60.2276C42.4737 61.1268 43.0213 61.9816 43.6629 62.781ZM41.9781 51.0922C41.9786 56.5556 42.9363 61.0048 45.9004 63.9497C48.8596 66.8898 53.9437 68.4513 62.5022 67.8216C62.5144 67.8207 62.5266 67.8203 62.5388 67.8203C66.3309 67.8203 69.0589 64.7472 70.3896 60.766C71.7195 56.7873 71.555 52.1578 69.7893 49.3889C66.9994 45.0138 61.8431 42.7087 56.6085 42.5925C51.3736 42.4763 46.1662 44.551 43.2697 48.7992C42.7435 49.571 42.3157 50.3363 41.9781 51.0922Z" fill="black"/>
<path fill-rule="evenodd" clip-rule="evenodd" d="M49.1165 67.6909C49.3358 67.8588 49.3774 68.1726 49.2096 68.3919C46.3553 72.1199 44.3588 75.3513 42.4193 78.6377C42.0605 79.2457 41.7034 79.8559 41.343 80.4718C39.7562 83.1838 38.1056 86.0047 35.9669 89.2128C35.8137 89.4425 35.5032 89.5046 35.2735 89.3514C35.0437 89.1983 34.9816 88.8878 35.1348 88.6581C37.2558 85.4766 38.8894 82.6849 40.4752 79.9747C40.8369 79.3566 41.1961 78.7428 41.5581 78.1295C43.5061 74.8287 45.5259 71.5582 48.4156 67.784C48.5834 67.5647 48.8973 67.523 49.1165 67.6909Z" fill="black"/>
<path fill-rule="evenodd" clip-rule="evenodd" d="M63.5726 68.2234C63.8312 68.1264 64.1194 68.2574 64.2163 68.516C67.3999 77.0054 70.7146 85.1189 75.0325 93.0349C75.1647 93.2773 75.0754 93.581 74.8329 93.7132C74.5905 93.8455 74.2868 93.7561 74.1546 93.5137C69.8031 85.5361 66.4691 77.3712 63.28 68.8671C63.1831 68.6085 63.3141 68.3203 63.5726 68.2234Z" fill="black"/>
<path fill-rule="evenodd" clip-rule="evenodd" d="M39.1259 32.1239C51.7441 27.0766 62.7482 27.1012 74.5489 33.4656C74.5638 33.4737 74.5783 33.4824 74.5923 33.4919C85.7795 41.0797 91.7177 48.9986 93.9477 56.6292C96.1799 64.2674 94.675 71.544 91.121 77.793C87.5711 84.0346 81.9721 89.2635 75.9743 92.8518C69.9839 96.4356 63.5393 98.4159 58.2804 98.0872C37.5908 96.794 22.3316 83.4271 21.3134 65.6167C21.3128 65.6072 21.3126 65.5977 21.3126 65.5882C21.3121 55.4061 27.9106 41.2379 42.0711 33.4674C42.3131 33.3345 42.6171 33.4231 42.7499 33.6652C42.8828 33.9073 42.7942 34.2112 42.5521 34.344C28.7193 41.9348 22.3183 55.7568 22.3126 65.5739C23.3027 82.7564 38.0394 95.8201 58.3428 97.0891C63.3336 97.4011 69.5763 95.5142 75.4609 91.9936C81.338 88.4775 86.8015 83.3649 90.2517 77.2986C93.6978 71.2396 95.1305 64.2418 92.9878 56.9097C90.8442 49.5747 85.1009 41.8327 74.0519 34.3337C62.5648 28.1459 51.8887 28.1029 39.528 33.0401C31.6244 37.4924 26.1922 43.2538 22.2366 49.5829C22.0902 49.817 21.7817 49.8882 21.5476 49.7419C21.3134 49.5955 21.2422 49.2871 21.3886 49.0529C25.4277 42.5903 30.9856 36.6978 39.0665 32.1523C39.0856 32.1416 39.1055 32.1321 39.1259 32.1239Z" fill="black"/>
<path fill-rule="evenodd" clip-rule="evenodd" d="M67.1554 55.4551C67.3852 55.6083 67.4473 55.9187 67.2941 56.1485C66.48 57.3697 65.6326 58.4404 64.5732 59.2376C63.5032 60.0429 62.2388 60.5529 60.6175 60.6899C56.9968 60.9959 54.6369 59.6723 51.948 57.6756C51.7263 57.511 51.6801 57.1978 51.8447 56.9761C52.0093 56.7544 52.3225 56.7082 52.5442 56.8728C55.1632 58.8175 57.2758 59.9687 60.5333 59.6935C61.9742 59.5717 63.0579 59.1264 63.9719 58.4386C64.8967 57.7427 65.6695 56.7826 66.462 55.5938C66.6152 55.364 66.9256 55.3019 67.1554 55.4551Z" fill="black"/>
<path fill-rule="evenodd" clip-rule="evenodd" d="M10.8848 17.3072C10.4348 17.4189 9.95522 17.7085 9.46177 18.2759C8.72792 19.1199 7.93994 19.7953 6.98438 20.1985C9.43174 20.9706 11.8314 21.8635 14.2175 22.7513L14.3658 22.8065C15.4883 23.2241 16.6082 23.6401 17.7307 24.0424C17.0681 22.7753 16.2882 21.4603 15.4425 20.3231C14.4105 18.9352 13.3315 17.883 12.3043 17.4562C11.8037 17.2482 11.3331 17.1959 10.8848 17.3072ZM19.0945 24.523C18.321 22.9426 17.3388 21.1973 16.245 19.7263C15.1874 18.3041 13.9743 17.0672 12.688 16.5327C12.0318 16.2601 11.3404 16.1637 10.6439 16.3366C9.94917 16.5091 9.30127 16.9365 8.70717 17.6197C7.63294 18.8551 6.5488 19.574 4.97307 19.6097C4.70695 19.5482 4.47373 19.5076 4.27813 19.4829C4.12172 19.4632 3.98515 19.453 3.87225 19.4513C3.7768 19.4498 3.64853 19.4528 3.53751 19.4851C3.50676 19.494 3.45123 19.5124 3.39168 19.5498C3.34096 19.5816 3.21206 19.6744 3.16484 19.8584C3.11066 20.0695 3.20257 20.2343 3.26811 20.3131C3.32821 20.3853 3.39436 20.4248 3.42522 20.4419C3.53678 20.5037 3.67564 20.5306 3.76753 20.546C3.99472 20.5839 4.35194 20.6111 4.84906 20.6111C4.85312 20.6111 4.85717 20.6111 4.86122 20.6111C4.9709 20.6381 5.08741 20.6693 5.21036 20.705C8.14339 21.5583 11.0033 22.6224 13.8836 23.6941L14.0171 23.7437C15.4616 24.2811 16.9114 24.8196 18.3744 25.3313C18.9945 26.6322 19.4577 27.7867 19.6996 28.5123C19.7869 28.7743 20.0701 28.9159 20.3321 28.8285C20.594 28.7412 20.7356 28.458 20.6483 28.1961C20.4524 27.6085 20.1209 26.7587 19.6832 25.78C20.7483 26.1371 21.8215 26.4758 22.9057 26.7856C23.1713 26.8614 23.448 26.7077 23.5239 26.4422C23.5997 26.1766 23.446 25.8999 23.1805 25.824C21.805 25.4311 20.4462 24.9904 19.0945 24.523Z" fill="#FAFBFC"/>
<path fill-rule="evenodd" clip-rule="evenodd" d="M92.7947 9.36277C92.8706 9.62829 92.7168 9.90503 92.4513 9.98089C88.8953 10.9969 85.1236 13.4561 83.1248 16.5568C83.1144 16.5729 83.1041 16.5893 83.0938 16.606C83.3212 16.7041 83.5367 16.8077 83.7377 16.9154C84.2224 17.175 84.7489 17.777 85.1964 18.4407C85.6584 19.1257 86.0921 19.9605 86.3631 20.7719C86.626 21.559 86.7706 22.4263 86.5233 23.1159C86.3924 23.4809 86.1515 23.7945 85.7799 23.9974C85.4183 24.1948 84.9751 24.2646 84.4702 24.2309C83.4608 24.1636 82.7029 23.7241 82.1837 23.0576C81.6768 22.407 81.4195 21.5707 81.3253 20.7224C81.1934 19.5349 81.3713 18.2271 81.7379 17.1724C81.1026 16.977 80.4104 16.8328 79.7177 16.7717C78.3957 16.6551 77.1571 16.8478 76.3028 17.4653C75.4822 18.0586 75.0977 19.0671 74.9278 20.2814C74.8091 21.1299 74.8028 21.9934 74.7968 22.8076C74.7941 23.1716 74.7915 23.5258 74.779 23.8644C74.7687 24.1403 74.5368 24.3557 74.2608 24.3455C73.9848 24.3353 73.7694 24.1033 73.7796 23.8274C73.7901 23.5445 73.7926 23.2241 73.7953 22.8803C73.8017 22.0397 73.8093 21.0588 73.9375 20.1429C74.1199 18.8388 74.5624 17.4895 75.717 16.6549C76.8493 15.8364 78.3711 15.6491 79.8055 15.7756C80.6079 15.8463 81.4096 16.0173 82.143 16.2514C82.1888 16.169 82.2359 16.0901 82.2843 16.015C84.4399 12.671 88.4367 10.0879 92.1766 9.01937C92.4421 8.9435 92.7188 9.09725 92.7947 9.36277ZM82.6773 17.5154C82.3688 18.4111 82.2024 19.5609 82.3192 20.612C82.4009 21.348 82.6166 21.9862 82.9725 22.443C83.3161 22.884 83.8108 23.1847 84.5367 23.2331C84.9193 23.2586 85.1566 23.1983 85.3007 23.1196C85.4348 23.0464 85.5247 22.9381 85.582 22.7784C85.711 22.4187 85.6609 21.8259 85.4146 21.0886C85.1765 20.3756 84.7867 19.6216 84.3674 18.9998C83.9336 18.3567 83.521 17.9338 83.2655 17.7969C83.0834 17.6993 82.8864 17.605 82.6773 17.5154Z" fill="#FAFBFC"/>
<path fill-rule="evenodd" clip-rule="evenodd" d="M6.74365 86.9659C4.06462 86.9357 1.88816 86.9365 0.543722 87.0545C0.268636 87.0786 0.0260733 86.8752 0.00194288 86.6001C-0.0221874 86.325 0.181252 86.0824 0.456338 86.0583C1.85992 85.9352 4.08971 85.936 6.75493 85.966C7.49791 85.9744 8.27606 85.9851 9.08201 85.9961C11.1803 86.025 13.4671 86.0564 15.8125 86.0563C16.0887 86.0563 16.3125 86.2802 16.3125 86.5563C16.3125 86.8325 16.0887 87.0563 15.8125 87.0563C13.4597 87.0564 11.162 87.0248 9.06159 86.996C8.25736 86.9849 7.48205 86.9743 6.74365 86.9659Z" fill="#FAFBFC"/>
<path fill-rule="evenodd" clip-rule="evenodd" d="M15.923 94.3252C16.1598 94.4673 16.2366 94.7744 16.0945 95.0112C15.5968 95.8408 13.8883 98.0836 12.1958 100.267C11.4187 101.27 10.6403 102.266 9.97002 103.124C9.16523 104.154 8.51615 104.985 8.21179 105.388C8.04556 105.609 7.73205 105.653 7.51155 105.487C7.29104 105.321 7.24704 105.007 7.41327 104.786C7.7214 104.378 8.38094 103.534 9.19354 102.494C9.86379 101.636 10.6382 100.645 11.4054 99.6549C13.1204 97.442 14.7784 95.2611 15.237 94.4967C15.3791 94.2599 15.6862 94.1832 15.923 94.3252Z" fill="#FAFBFC"/>
<path fill-rule="evenodd" clip-rule="evenodd" d="M160.461 6.14645C160.656 6.34171 160.656 6.65829 160.461 6.85355L151.854 15.461C151.658 15.6563 151.342 15.6563 151.146 15.461C150.951 15.2657 150.951 14.9492 151.146 14.7539L159.754 6.14645C159.949 5.95118 160.266 5.95118 160.461 6.14645Z" fill="#FAFBFC"/>
<path fill-rule="evenodd" clip-rule="evenodd" d="M177.625 20.984C177.892 20.9151 178.053 20.6424 177.984 20.375C177.487 18.4476 176.271 14.8655 175.042 11.3192C174.772 10.5374 174.5 9.75705 174.235 8.99531C173.292 6.28538 172.431 3.81139 171.978 2.35159C171.896 2.08787 171.616 1.94048 171.352 2.02238C171.088 2.10428 170.941 2.38445 171.023 2.64817C171.482 4.1258 172.351 6.62435 173.295 9.33791C173.559 10.0965 173.829 10.8719 174.098 11.6465C175.332 15.2084 176.531 18.7458 177.016 20.6247C177.085 20.8921 177.358 21.053 177.625 20.984Z" fill="#FAFBFC"/>
<path fill-rule="evenodd" clip-rule="evenodd" d="M169.391 7.98778C169.66 8.04819 169.928 7.87873 169.988 7.60928C170.219 6.58039 170.575 5.36042 170.947 4.12887C171.025 3.8738 171.102 3.6181 171.18 3.36373C171.474 2.39798 171.762 1.45126 171.983 0.629938C172.055 0.363299 171.897 0.0889225 171.63 0.0171003C171.364 -0.0547218 171.089 0.103209 171.017 0.369847C170.801 1.17397 170.519 2.09975 170.226 3.06334C170.148 3.31993 170.069 3.57919 169.99 3.83956C169.618 5.0696 169.252 6.32167 169.012 7.39051C168.952 7.65996 169.121 7.92737 169.391 7.98778Z" fill="#FAFBFC"/>
<path fill-rule="evenodd" clip-rule="evenodd" d="M177.895 5.80695C178.064 5.58897 178.025 5.27484 177.807 5.1053C176.92 4.41528 176.103 3.69095 175.273 2.95421C175.142 2.83756 175.01 2.72061 174.877 2.60343C173.913 1.75044 172.917 0.89081 171.789 0.0919247C171.564 -0.0676589 171.252 -0.0143361 171.092 0.211025C170.932 0.436386 170.986 0.748445 171.211 0.908029C172.292 1.67354 173.253 2.50239 174.215 3.35255C174.345 3.46784 174.476 3.58363 174.606 3.69973C175.435 4.43534 176.278 5.18318 177.193 5.89465C177.411 6.06419 177.725 6.02492 177.895 5.80695Z" fill="#FAFBFC"/>
<path fill-rule="evenodd" clip-rule="evenodd" d="M206.845 10.6706C207.103 10.7676 207.234 11.0558 207.137 11.3144C206.924 11.8842 206.73 12.4405 206.54 12.9854C205.708 15.3731 204.952 17.5429 202.934 19.6797C202.744 19.8804 202.428 19.8895 202.227 19.6999C202.026 19.5103 202.017 19.1938 202.207 18.9931C204.066 17.0244 204.744 15.0842 205.571 12.7201C205.767 12.1603 205.971 11.5767 206.201 10.9632C206.298 10.7047 206.586 10.5737 206.845 10.6706Z" fill="#FAFBFC"/>
<path fill-rule="evenodd" clip-rule="evenodd" d="M217.411 14.7575C217.45 15.0308 217.26 15.2841 216.987 15.3232C212.008 16.0344 207.487 18.6012 203.256 21.3937C203.025 21.5458 202.715 21.4823 202.563 21.2518C202.411 21.0213 202.475 20.7112 202.705 20.5591C206.953 17.7553 211.632 15.078 216.846 14.3332C217.119 14.2942 217.372 14.4841 217.411 14.7575Z" fill="#FAFBFC"/>
<path fill-rule="evenodd" clip-rule="evenodd" d="M205.367 11.4196C205.438 11.1529 205.712 10.9945 205.979 11.066C206.684 11.2546 207.394 11.4384 208.107 11.623C211.716 12.5568 215.398 13.5096 218.78 15.2005C219.027 15.324 219.127 15.6244 219.003 15.8713C218.88 16.1183 218.579 16.2184 218.332 16.0949C215.054 14.4556 211.493 13.5333 207.885 12.5989C207.165 12.4123 206.443 12.2253 205.72 12.0319C205.454 11.9605 205.295 11.6864 205.367 11.4196Z" fill="#FAFBFC"/>
<defs>
<linearGradient id="paint0_linear_373_27688" x1="100.622" y1="30.0784" x2="132.981" y2="91.1404" gradientUnits="userSpaceOnUse">
<stop stop-color="white"/>
</linearGradient>
</defs>
</svg>
