<svg width="194" height="30" viewBox="0 0 194 135" fill="none" xmlns="http://www.w3.org/2000/svg">
    <path d="M194 67.5C194 104.779 161.764 135 122 135C82.2355 135 50 104.779 50 67.5C50 30.2208 82.2355 0 122 0C161.764 0 194 30.2208 194 67.5Z" fill="#37A695"/>
    <path d="M62.2353 41.863C62.0026 47.7702 48.8627 52.0464 32.8865 51.4139C15.9399 48.0649 4.7904 44.6477 0.29541 41.1965C11.173 37.461 14.9089 35.5259 34.2117 31.8263C50.1879 32.4588 62.4679 35.9557 62.2353 41.863Z" fill="#37A695"/>
    <path d="M67.9203 39.6369C64.7669 43.3081 55.0309 40.0861 46.1745 32.4404C38.1491 22.6181 33.4896 15.3798 32.6711 11.136C40.8307 13.6782 43.9666 14.1344 56.9489 20.5184C65.8053 28.1641 71.0737 35.9658 67.9203 39.6369Z" fill="#37A695"/>
    <path d="M64.331 49C60.2338 49 57.3862 53.0305 59.4798 56.5524C69.7654 73.8556 93.8852 86 122 86C150.115 86 174.234 73.8556 184.52 56.5524C186.614 53.0305 183.766 49 179.669 49H64.331Z" fill="#FFFBFB"/>
    <path d="M83.4102 57.3421C79.3423 56.4879 75.9995 60.0102 78.6344 63.2276C82.45 67.8867 88.9355 71.7114 96.7509 73.3526C104.566 74.9937 112.038 74.0998 117.398 71.3674C121.099 69.4805 119.447 64.9095 115.379 64.0553L83.4102 57.3421Z" fill="#37A695"/>
    <path d="M161.249 57.3421C165.317 56.4879 168.66 60.0102 166.025 63.2276C162.21 67.8867 155.724 71.7114 147.909 73.3526C140.093 74.9937 132.622 74.0998 127.262 71.3674C123.561 69.4805 125.212 64.9095 129.28 64.0553L161.249 57.3421Z" fill="#37A695"/>
    </svg>
